<svg xmlns="http://www.w3.org/2000/svg" width="1440" height="960" viewBox="0 0 1440 960" role="img" aria-labelledby="t d"><title id="t">openemr2026 病历编辑状态母版</title><desc id="d">自动保存、离线草稿、并发冲突、质控阻断、签署与更正</desc><rect width="1440" height="960" fill="#F3F6F9"/><rect width="1440" height="64" fill="#102A43"/><text x="40" y="41" fill="#fff" font-family="PingFang SC,Microsoft YaHei,sans-serif" font-size="22" font-weight="700">病历编辑状态母版</text><g font-family="PingFang SC,Microsoft YaHei,sans-serif"><rect x="40" y="100" width="1360" height="72" rx="8" fill="#fff" stroke="#DCE3EB"/><text x="64" y="130" fill="#172235" font-size="18" font-weight="700">王某某 · 门诊号 OP202608140032</text><text x="64" y="154" fill="#607086" font-size="12">48岁 · 心内科 · 严重过敏：青霉素</text><rect x="1184" y="118" width="184" height="34" rx="6" fill="#EAF8F1" stroke="#A9D8C6"/><text x="1222" y="140" fill="#126B4E" font-size="12">已保存 · 09:43:18</text>
<g transform="translate(40 204)"><rect width="850" height="700" rx="10" fill="#fff" stroke="#DCE3EB"/><text x="425" y="56" text-anchor="middle" fill="#172235" font-size="20" font-weight="700">门诊病历</text><line x1="36" y1="76" x2="814" y2="76" stroke="#DCE3EB"/><text x="44" y="120" fill="#172235" font-size="14" font-weight="700">主诉</text><text x="124" y="120" fill="#31445C" font-size="14">反复心悸 3 月，加重 2 天。</text><text x="44" y="170" fill="#172235" font-size="14" font-weight="700">现病史</text><rect x="124" y="145" width="680" height="150" rx="6" fill="#fff" stroke="#B7C5D3"/><text x="142" y="177" fill="#31445C" font-size="14">患者 3 月前无明显诱因出现心悸……</text><rect x="142" y="215" width="118" height="24" rx="4" fill="#F5F0FF" stroke="#CFBEF4"/><text x="155" y="232" fill="#56359C" font-size="11">AI 草稿 · 待确认</text><text x="44" y="342" fill="#172235" font-size="14" font-weight="700">临床事实</text><rect x="124" y="319" width="680" height="70" rx="6" fill="#F8FAFC" stroke="#DCE3EB"/><text x="142" y="348" fill="#31445C" font-size="13">ECG: 窦性心律，ST-T 改变</text><text x="142" y="373" fill="#607086" font-size="11">来源：ECG-20260814-1882 · 09:28</text></g>
<g transform="translate(920 204)"><rect width="480" height="150" rx="9" fill="#fff" stroke="#CFBEF4"/><rect width="5" height="150" rx="3" fill="#6D45C2"/><text x="24" y="34" fill="#56359C" font-size="15" font-weight="700">AI 内容待医生确认</text><text x="24" y="65" fill="#31445C" font-size="12">模型：Qwen-Med-Local-32B · Skill v1.8</text><text x="24" y="91" fill="#607086" font-size="12">引用 4 条就诊事实，1 处不确定表达</text><rect x="24" y="108" width="92" height="28" rx="6" fill="#6D45C2"/><text x="42" y="127" fill="#fff" font-size="11">审查并接受</text></g>
<g transform="translate(920 380)"><rect width="480" height="160" rx="9" fill="#FFF8E7" stroke="#E9C977"/><rect width="5" height="160" rx="3" fill="#B7791F"/><text x="24" y="34" fill="#76500B" font-size="15" font-weight="700">并发冲突 · 不得静默覆盖</text><text x="24" y="65" fill="#31445C" font-size="12">张医生于 09:45 更新了现病史</text><text x="24" y="91" fill="#607086" font-size="12">你的本地草稿已封存，请对比后合并</text><rect x="24" y="115" width="104" height="30" rx="6" fill="#1769E0"/><text x="47" y="135" fill="#fff" font-size="11">打开差异</text></g>
<g transform="translate(920 566)"><rect width="480" height="160" rx="9" fill="#FFF1F1" stroke="#E7A8A8"/><rect width="5" height="160" rx="3" fill="#C53030"/><text x="24" y="34" fill="#8E2626" font-size="15" font-weight="700">阻断签署 · 2 项必填缺失</text><text x="24" y="65" fill="#31445C" font-size="12">① 主要诊断编码未选择</text><text x="24" y="91" fill="#31445C" font-size="12">② 高风险用药无体重依据</text><text x="24" y="119" fill="#607086" font-size="11">规则：OPD-SIGN-012 v3.2 · 责任：签署医师</text></g>
<g transform="translate(920 752)"><rect width="480" height="152" rx="9" fill="#EAF8F1" stroke="#A9D8C6"/><rect width="5" height="152" rx="3" fill="#168C64"/><text x="24" y="34" fill="#126B4E" font-size="15" font-weight="700">已签署 · 内容只读</text><text x="24" y="65" fill="#31445C" font-size="12">签署人：林医生 · 09:52:07</text><text x="24" y="91" fill="#607086" font-size="12">需修改时创建更正版本，保留原文与传播证据</text><rect x="24" y="108" width="100" height="28" rx="6" fill="#1769E0"/><text x="48" y="127" fill="#fff" font-size="11">申请更正</text></g></g></svg>
