<svg xmlns="http://www.w3.org/2000/svg" style="display:none">
  <symbol id="home" viewBox="0 0 24 24"><path d="M3 11.5 12 4l9 7.5V21h-6v-6H9v6H3z" fill="none" stroke="currentColor" stroke-width="1.8" stroke-linejoin="round"/></symbol>
  <symbol id="patient" viewBox="0 0 24 24"><circle cx="12" cy="8" r="4" fill="none" stroke="currentColor" stroke-width="1.8"/><path d="M4.5 21c.6-4 3-6 7.5-6s6.9 2 7.5 6" fill="none" stroke="currentColor" stroke-width="1.8" stroke-linecap="round"/></symbol>
  <symbol id="record" viewBox="0 0 24 24"><path d="M6 3h9l4 4v14H6z" fill="none" stroke="currentColor" stroke-width="1.8" stroke-linejoin="round"/><path d="M15 3v5h4M9 12h7M9 16h7" stroke="currentColor" stroke-width="1.8" stroke-linecap="round"/></symbol>
  <symbol id="ward" viewBox="0 0 24 24"><path d="M3 19V8m0 7h18v4M6 15v-4h5c2 0 3 1 3 4M5 9a2 2 0 1 0 0-4 2 2 0 0 0 0 4Z" fill="none" stroke="currentColor" stroke-width="1.8" stroke-linecap="round" stroke-linejoin="round"/></symbol>
  <symbol id="quality" viewBox="0 0 24 24"><path d="M12 3 4 6v6c0 4.5 2.8 7.4 8 9 5.2-1.6 8-4.5 8-9V6z" fill="none" stroke="currentColor" stroke-width="1.8" stroke-linejoin="round"/><path d="m8.5 12 2.2 2.2 4.8-5" fill="none" stroke="currentColor" stroke-width="1.8" stroke-linecap="round" stroke-linejoin="round"/></symbol>
  <symbol id="data" viewBox="0 0 24 24"><ellipse cx="12" cy="6" rx="8" ry="3" fill="none" stroke="currentColor" stroke-width="1.8"/><path d="M4 6v6c0 1.7 3.6 3 8 3s8-1.3 8-3V6M4 12v6c0 1.7 3.6 3 8 3s8-1.3 8-3v-6" fill="none" stroke="currentColor" stroke-width="1.8"/></symbol>
  <symbol id="settings" viewBox="0 0 24 24"><circle cx="12" cy="12" r="3" fill="none" stroke="currentColor" stroke-width="1.8"/><path d="M19 13.5V10l-2.2-.7-.8-1.8 1-2-2.5-1.4-1.5 1.6h-2L9.5 4.1 7 5.5l1 2-.8 1.8L5 10v3.5l2.2.7.8 1.8-1 2 2.5 1.4 1.5-1.6h2l1.5 1.6L17 18l-1-2 .8-1.8z" fill="none" stroke="currentColor" stroke-width="1.5" stroke-linejoin="round"/></symbol>
  <symbol id="ai" viewBox="0 0 24 24"><path d="m12 2 1.7 5.3L19 9l-5.3 1.7L12 16l-1.7-5.3L5 9l5.3-1.7zM19 15l.8 2.2L22 18l-2.2.8L19 21l-.8-2.2L16 18l2.2-.8z" fill="none" stroke="currentColor" stroke-width="1.6" stroke-linejoin="round"/></symbol>
  <symbol id="critical" viewBox="0 0 24 24"><path d="m8 2 8 0 6 6v8l-6 6H8l-6-6V8z" fill="none" stroke="currentColor" stroke-width="1.8"/><path d="M12 6v8M12 18h.01" stroke="currentColor" stroke-width="2" stroke-linecap="round"/></symbol>
  <symbol id="warning" viewBox="0 0 24 24"><path d="M12 3 2.5 20h19z" fill="none" stroke="currentColor" stroke-width="1.8" stroke-linejoin="round"/><path d="M12 9v5M12 17h.01" stroke="currentColor" stroke-width="2" stroke-linecap="round"/></symbol>
  <symbol id="success" viewBox="0 0 24 24"><circle cx="12" cy="12" r="9" fill="none" stroke="currentColor" stroke-width="1.8"/><path d="m8 12 2.5 2.5L16.5 8" fill="none" stroke="currentColor" stroke-width="1.8" stroke-linecap="round" stroke-linejoin="round"/></symbol>
  <symbol id="offline" viewBox="0 0 24 24"><path d="M5 9a11 11 0 0 1 14 0M8 12a7 7 0 0 1 8 0M11 15a3 3 0 0 1 2 0M3 3l18 18" fill="none" stroke="currentColor" stroke-width="1.8" stroke-linecap="round"/></symbol>
  <symbol id="microphone" viewBox="0 0 24 24"><rect x="8" y="3" width="8" height="12" rx="4" fill="none" stroke="currentColor" stroke-width="1.8"/><path d="M5 11a7 7 0 0 0 14 0M12 18v3M9 21h6" fill="none" stroke="currentColor" stroke-width="1.8" stroke-linecap="round"/></symbol>
  <symbol id="help" viewBox="0 0 24 24"><circle cx="12" cy="12" r="9" fill="none" stroke="currentColor" stroke-width="1.8"/><path d="M9.7 9a2.5 2.5 0 1 1 3.2 2.4c-.9.4-.9 1.1-.9 2.1M12 17h.01" fill="none" stroke="currentColor" stroke-width="1.8" stroke-linecap="round"/></symbol>
  <symbol id="context" viewBox="0 0 24 24"><path d="M12 3 5 7v10l7 4 7-4V7z" fill="none" stroke="currentColor" stroke-width="1.8" stroke-linejoin="round"/><circle cx="12" cy="12" r="2.5" fill="none" stroke="currentColor" stroke-width="1.8"/></symbol>
</svg>
